<mxfile host="Electron" agent="Mozilla/5.0 (Windows NT 10.0; Win64; x64) AppleWebKit/537.36 (KHTML, like Gecko) draw.io/26.2.15 Chrome/134.0.6998.205 Electron/35.2.1 Safari/537.36" version="26.2.15">
  <diagram name="Page-1" id="oSlewENaS0oFDHan6Odl">
    <mxGraphModel dx="1150" dy="855" grid="1" gridSize="10" guides="1" tooltips="1" connect="1" arrows="1" fold="1" page="1" pageScale="1" pageWidth="850" pageHeight="1100" math="0" shadow="0">
      <root>
        <mxCell id="0" />
        <mxCell id="1" parent="0" />
        <mxCell id="K57IxNAiELHm6sNZKB3q-6" style="edgeStyle=orthogonalEdgeStyle;rounded=0;orthogonalLoop=1;jettySize=auto;html=1;entryX=0.5;entryY=0;entryDx=0;entryDy=0;" edge="1" parent="1" source="6UNTzcrF52I9kLxuiCpZ-1" target="6UNTzcrF52I9kLxuiCpZ-5">
          <mxGeometry relative="1" as="geometry" />
        </mxCell>
        <mxCell id="K57IxNAiELHm6sNZKB3q-7" style="edgeStyle=orthogonalEdgeStyle;rounded=0;orthogonalLoop=1;jettySize=auto;html=1;entryX=0.5;entryY=0;entryDx=0;entryDy=0;" edge="1" parent="1" source="6UNTzcrF52I9kLxuiCpZ-1" target="KyXDzSjDox9yBsgEbLH3-3">
          <mxGeometry relative="1" as="geometry" />
        </mxCell>
        <mxCell id="6UNTzcrF52I9kLxuiCpZ-1" value="START" style="ellipse;whiteSpace=wrap;html=1;fontSize=20;" parent="1" vertex="1">
          <mxGeometry x="120" y="30" width="120" height="80" as="geometry" />
        </mxCell>
        <mxCell id="6UNTzcrF52I9kLxuiCpZ-5" value="T1" style="rounded=0;whiteSpace=wrap;html=1;fontSize=20;" parent="1" vertex="1">
          <mxGeometry x="120" y="210" width="120" height="60" as="geometry" />
        </mxCell>
        <mxCell id="K57IxNAiELHm6sNZKB3q-14" style="edgeStyle=orthogonalEdgeStyle;rounded=0;orthogonalLoop=1;jettySize=auto;html=1;entryX=0.5;entryY=0;entryDx=0;entryDy=0;" edge="1" parent="1" source="6UNTzcrF52I9kLxuiCpZ-6" target="6UNTzcrF52I9kLxuiCpZ-11">
          <mxGeometry relative="1" as="geometry">
            <Array as="points">
              <mxPoint x="180" y="350" />
            </Array>
          </mxGeometry>
        </mxCell>
        <mxCell id="6UNTzcrF52I9kLxuiCpZ-6" value="T3" style="rounded=0;whiteSpace=wrap;html=1;fontSize=20;" parent="1" vertex="1">
          <mxGeometry x="240" y="310" width="120" height="60" as="geometry" />
        </mxCell>
        <mxCell id="6UNTzcrF52I9kLxuiCpZ-7" value="T2" style="rounded=0;whiteSpace=wrap;html=1;fontSize=20;" parent="1" vertex="1">
          <mxGeometry y="310" width="120" height="60" as="geometry" />
        </mxCell>
        <mxCell id="6UNTzcrF52I9kLxuiCpZ-9" value="" style="endArrow=classic;html=1;rounded=0;exitX=1;exitY=0.5;exitDx=0;exitDy=0;fontSize=20;" parent="1" source="6UNTzcrF52I9kLxuiCpZ-5" edge="1">
          <mxGeometry width="50" height="50" relative="1" as="geometry">
            <mxPoint x="200" y="300" as="sourcePoint" />
            <mxPoint x="310" y="310" as="targetPoint" />
            <Array as="points">
              <mxPoint x="310" y="240" />
            </Array>
          </mxGeometry>
        </mxCell>
        <mxCell id="6UNTzcrF52I9kLxuiCpZ-11" value="M1" style="ellipse;whiteSpace=wrap;html=1;fontSize=20;" parent="1" vertex="1">
          <mxGeometry x="119.99999999999989" y="410" width="120" height="80" as="geometry" />
        </mxCell>
        <mxCell id="6UNTzcrF52I9kLxuiCpZ-13" value="T5" style="rounded=0;whiteSpace=wrap;html=1;fontSize=20;" parent="1" vertex="1">
          <mxGeometry x="320" y="530" width="120" height="60" as="geometry" />
        </mxCell>
        <mxCell id="6UNTzcrF52I9kLxuiCpZ-14" value="" style="endArrow=classic;html=1;rounded=0;exitX=0.5;exitY=1;exitDx=0;exitDy=0;entryX=0;entryY=0.5;entryDx=0;entryDy=0;fontSize=20;" parent="1" source="6UNTzcrF52I9kLxuiCpZ-11" target="6UNTzcrF52I9kLxuiCpZ-13" edge="1">
          <mxGeometry width="50" height="50" relative="1" as="geometry">
            <mxPoint x="320" y="460" as="sourcePoint" />
            <mxPoint x="370" y="410" as="targetPoint" />
            <Array as="points">
              <mxPoint x="180" y="560" />
            </Array>
          </mxGeometry>
        </mxCell>
        <mxCell id="KyXDzSjDox9yBsgEbLH3-10" style="edgeStyle=orthogonalEdgeStyle;rounded=0;orthogonalLoop=1;jettySize=auto;html=1;entryX=0.5;entryY=0;entryDx=0;entryDy=0;" parent="1" source="6UNTzcrF52I9kLxuiCpZ-15" target="KyXDzSjDox9yBsgEbLH3-9" edge="1">
          <mxGeometry relative="1" as="geometry">
            <Array as="points">
              <mxPoint x="750" y="500" />
            </Array>
          </mxGeometry>
        </mxCell>
        <mxCell id="6UNTzcrF52I9kLxuiCpZ-15" value="T6" style="rounded=0;whiteSpace=wrap;html=1;fontSize=20;" parent="1" vertex="1">
          <mxGeometry x="500" y="450" width="120" height="60" as="geometry" />
        </mxCell>
        <mxCell id="6UNTzcrF52I9kLxuiCpZ-16" value="T7" style="rounded=0;whiteSpace=wrap;html=1;fontSize=20;" parent="1" vertex="1">
          <mxGeometry x="500" y="590" width="120" height="60" as="geometry" />
        </mxCell>
        <mxCell id="6UNTzcrF52I9kLxuiCpZ-17" value="" style="endArrow=classic;html=1;rounded=0;exitX=0.5;exitY=0;exitDx=0;exitDy=0;entryX=0;entryY=0.5;entryDx=0;entryDy=0;fontSize=20;" parent="1" source="6UNTzcrF52I9kLxuiCpZ-13" target="6UNTzcrF52I9kLxuiCpZ-15" edge="1">
          <mxGeometry width="50" height="50" relative="1" as="geometry">
            <mxPoint x="560" y="460" as="sourcePoint" />
            <mxPoint x="610" y="410" as="targetPoint" />
            <Array as="points">
              <mxPoint x="380" y="480" />
            </Array>
          </mxGeometry>
        </mxCell>
        <mxCell id="6UNTzcrF52I9kLxuiCpZ-19" value="M2" style="ellipse;whiteSpace=wrap;html=1;fontSize=20;" parent="1" vertex="1">
          <mxGeometry x="690" y="700" width="120" height="80" as="geometry" />
        </mxCell>
        <mxCell id="K57IxNAiELHm6sNZKB3q-36" value="" style="edgeStyle=orthogonalEdgeStyle;rounded=0;orthogonalLoop=1;jettySize=auto;html=1;" edge="1" parent="1" source="6UNTzcrF52I9kLxuiCpZ-22" target="K57IxNAiELHm6sNZKB3q-32">
          <mxGeometry relative="1" as="geometry">
            <Array as="points">
              <mxPoint x="520" y="880" />
              <mxPoint x="520" y="880" />
            </Array>
          </mxGeometry>
        </mxCell>
        <mxCell id="6UNTzcrF52I9kLxuiCpZ-22" value="T9" style="rounded=0;whiteSpace=wrap;html=1;fontSize=20;" parent="1" vertex="1">
          <mxGeometry x="540" y="830" width="120" height="60" as="geometry" />
        </mxCell>
        <mxCell id="K57IxNAiELHm6sNZKB3q-39" style="edgeStyle=orthogonalEdgeStyle;rounded=0;orthogonalLoop=1;jettySize=auto;html=1;entryX=1;entryY=0.5;entryDx=0;entryDy=0;" edge="1" parent="1" source="6UNTzcrF52I9kLxuiCpZ-24" target="K57IxNAiELHm6sNZKB3q-38">
          <mxGeometry relative="1" as="geometry">
            <Array as="points">
              <mxPoint x="410" y="790" />
            </Array>
          </mxGeometry>
        </mxCell>
        <mxCell id="6UNTzcrF52I9kLxuiCpZ-24" value="T10" style="rounded=0;whiteSpace=wrap;html=1;fontSize=20;" parent="1" vertex="1">
          <mxGeometry x="350" y="830" width="120" height="60" as="geometry" />
        </mxCell>
        <mxCell id="KyXDzSjDox9yBsgEbLH3-16" style="edgeStyle=orthogonalEdgeStyle;rounded=0;orthogonalLoop=1;jettySize=auto;html=1;entryX=0.5;entryY=0;entryDx=0;entryDy=0;" parent="1" source="6UNTzcrF52I9kLxuiCpZ-25" target="6UNTzcrF52I9kLxuiCpZ-28" edge="1">
          <mxGeometry relative="1" as="geometry" />
        </mxCell>
        <mxCell id="6UNTzcrF52I9kLxuiCpZ-25" value="T11" style="rounded=0;whiteSpace=wrap;html=1;fontSize=20;" parent="1" vertex="1">
          <mxGeometry x="200" y="740" width="120" height="60" as="geometry" />
        </mxCell>
        <mxCell id="KyXDzSjDox9yBsgEbLH3-18" style="edgeStyle=orthogonalEdgeStyle;rounded=0;orthogonalLoop=1;jettySize=auto;html=1;entryX=0.5;entryY=0;entryDx=0;entryDy=0;" parent="1" source="6UNTzcrF52I9kLxuiCpZ-28" target="6UNTzcrF52I9kLxuiCpZ-30" edge="1">
          <mxGeometry relative="1" as="geometry" />
        </mxCell>
        <mxCell id="6UNTzcrF52I9kLxuiCpZ-28" value="M3" style="ellipse;whiteSpace=wrap;html=1;fontSize=20;" parent="1" vertex="1">
          <mxGeometry x="40" y="820" width="120" height="80" as="geometry" />
        </mxCell>
        <mxCell id="6UNTzcrF52I9kLxuiCpZ-30" value="&lt;font size=&quot;3&quot;&gt;FINISH&lt;/font&gt;" style="ellipse;whiteSpace=wrap;html=1;" parent="1" vertex="1">
          <mxGeometry x="40" y="980" width="120" height="80" as="geometry" />
        </mxCell>
        <mxCell id="KyXDzSjDox9yBsgEbLH3-3" value="T4" style="rounded=0;whiteSpace=wrap;html=1;fontSize=20;" parent="1" vertex="1">
          <mxGeometry x="360" y="210" width="120" height="60" as="geometry" />
        </mxCell>
        <mxCell id="KyXDzSjDox9yBsgEbLH3-11" style="edgeStyle=orthogonalEdgeStyle;rounded=0;orthogonalLoop=1;jettySize=auto;html=1;" parent="1" source="KyXDzSjDox9yBsgEbLH3-9" target="6UNTzcrF52I9kLxuiCpZ-19" edge="1">
          <mxGeometry relative="1" as="geometry" />
        </mxCell>
        <mxCell id="KyXDzSjDox9yBsgEbLH3-9" value="T8" style="rounded=0;whiteSpace=wrap;html=1;fontSize=20;" parent="1" vertex="1">
          <mxGeometry x="690" y="530" width="120" height="60" as="geometry" />
        </mxCell>
        <mxCell id="KyXDzSjDox9yBsgEbLH3-12" value="T12" style="rounded=0;whiteSpace=wrap;html=1;fontSize=20;" parent="1" vertex="1">
          <mxGeometry x="200" y="920" width="120" height="60" as="geometry" />
        </mxCell>
        <mxCell id="K57IxNAiELHm6sNZKB3q-2" value="T1" style="rounded=0;whiteSpace=wrap;html=1;fontSize=20;" vertex="1" parent="1">
          <mxGeometry x="130" y="220" width="120" height="60" as="geometry" />
        </mxCell>
        <mxCell id="K57IxNAiELHm6sNZKB3q-3" value="T1" style="rounded=0;whiteSpace=wrap;html=1;fontSize=20;" vertex="1" parent="1">
          <mxGeometry x="140" y="230" width="120" height="60" as="geometry" />
        </mxCell>
        <mxCell id="K57IxNAiELHm6sNZKB3q-4" value="T4" style="rounded=0;whiteSpace=wrap;html=1;fontSize=20;" vertex="1" parent="1">
          <mxGeometry x="370" y="220" width="120" height="60" as="geometry" />
        </mxCell>
        <mxCell id="K57IxNAiELHm6sNZKB3q-16" style="edgeStyle=orthogonalEdgeStyle;rounded=0;orthogonalLoop=1;jettySize=auto;html=1;entryX=1;entryY=0.5;entryDx=0;entryDy=0;" edge="1" parent="1" source="K57IxNAiELHm6sNZKB3q-5" target="K57IxNAiELHm6sNZKB3q-15">
          <mxGeometry relative="1" as="geometry">
            <Array as="points">
              <mxPoint x="420" y="460" />
            </Array>
          </mxGeometry>
        </mxCell>
        <mxCell id="K57IxNAiELHm6sNZKB3q-5" value="T4" style="rounded=0;whiteSpace=wrap;html=1;fontSize=20;" vertex="1" parent="1">
          <mxGeometry x="380" y="230" width="120" height="60" as="geometry" />
        </mxCell>
        <mxCell id="K57IxNAiELHm6sNZKB3q-8" value="T2" style="rounded=0;whiteSpace=wrap;html=1;fontSize=20;" vertex="1" parent="1">
          <mxGeometry x="10" y="320" width="120" height="60" as="geometry" />
        </mxCell>
        <mxCell id="K57IxNAiELHm6sNZKB3q-9" value="T2" style="rounded=0;whiteSpace=wrap;html=1;fontSize=20;" vertex="1" parent="1">
          <mxGeometry x="20" y="330" width="120" height="60" as="geometry" />
        </mxCell>
        <mxCell id="K57IxNAiELHm6sNZKB3q-10" value="T3" style="rounded=0;whiteSpace=wrap;html=1;fontSize=20;" vertex="1" parent="1">
          <mxGeometry x="250" y="320" width="120" height="60" as="geometry" />
        </mxCell>
        <mxCell id="K57IxNAiELHm6sNZKB3q-11" value="T3" style="rounded=0;whiteSpace=wrap;html=1;fontSize=20;" vertex="1" parent="1">
          <mxGeometry x="260" y="330" width="120" height="60" as="geometry" />
        </mxCell>
        <mxCell id="K57IxNAiELHm6sNZKB3q-12" style="edgeStyle=orthogonalEdgeStyle;rounded=0;orthogonalLoop=1;jettySize=auto;html=1;" edge="1" parent="1" source="6UNTzcrF52I9kLxuiCpZ-5">
          <mxGeometry relative="1" as="geometry">
            <mxPoint x="51" y="310" as="targetPoint" />
            <Array as="points">
              <mxPoint x="51" y="240" />
            </Array>
          </mxGeometry>
        </mxCell>
        <mxCell id="K57IxNAiELHm6sNZKB3q-15" value="M1" style="ellipse;whiteSpace=wrap;html=1;fontSize=20;" vertex="1" parent="1">
          <mxGeometry x="129.9999999999999" y="420" width="120" height="80" as="geometry" />
        </mxCell>
        <mxCell id="K57IxNAiELHm6sNZKB3q-17" value="T5" style="rounded=0;whiteSpace=wrap;html=1;fontSize=20;" vertex="1" parent="1">
          <mxGeometry x="330" y="540" width="120" height="60" as="geometry" />
        </mxCell>
        <mxCell id="K57IxNAiELHm6sNZKB3q-18" value="T5" style="rounded=0;whiteSpace=wrap;html=1;fontSize=20;" vertex="1" parent="1">
          <mxGeometry x="340" y="550" width="120" height="60" as="geometry" />
        </mxCell>
        <mxCell id="K57IxNAiELHm6sNZKB3q-19" value="T7" style="rounded=0;whiteSpace=wrap;html=1;fontSize=20;" vertex="1" parent="1">
          <mxGeometry x="510" y="600" width="120" height="60" as="geometry" />
        </mxCell>
        <mxCell id="K57IxNAiELHm6sNZKB3q-20" value="T7" style="rounded=0;whiteSpace=wrap;html=1;fontSize=20;" vertex="1" parent="1">
          <mxGeometry x="520" y="610" width="120" height="60" as="geometry" />
        </mxCell>
        <mxCell id="K57IxNAiELHm6sNZKB3q-22" value="T6" style="rounded=0;whiteSpace=wrap;html=1;fontSize=20;" vertex="1" parent="1">
          <mxGeometry x="510" y="460" width="120" height="60" as="geometry" />
        </mxCell>
        <mxCell id="K57IxNAiELHm6sNZKB3q-23" value="T6" style="rounded=0;whiteSpace=wrap;html=1;fontSize=20;" vertex="1" parent="1">
          <mxGeometry x="520" y="470" width="120" height="60" as="geometry" />
        </mxCell>
        <mxCell id="K57IxNAiELHm6sNZKB3q-24" value="T8" style="rounded=0;whiteSpace=wrap;html=1;fontSize=20;" vertex="1" parent="1">
          <mxGeometry x="700" y="540" width="120" height="60" as="geometry" />
        </mxCell>
        <mxCell id="K57IxNAiELHm6sNZKB3q-25" value="T8" style="rounded=0;whiteSpace=wrap;html=1;fontSize=20;" vertex="1" parent="1">
          <mxGeometry x="710" y="550" width="120" height="60" as="geometry" />
        </mxCell>
        <mxCell id="K57IxNAiELHm6sNZKB3q-26" value="M2" style="ellipse;whiteSpace=wrap;html=1;fontSize=20;" vertex="1" parent="1">
          <mxGeometry x="700" y="710" width="120" height="80" as="geometry" />
        </mxCell>
        <mxCell id="K57IxNAiELHm6sNZKB3q-30" style="edgeStyle=orthogonalEdgeStyle;rounded=0;orthogonalLoop=1;jettySize=auto;html=1;entryX=1;entryY=0.5;entryDx=0;entryDy=0;" edge="1" parent="1" source="K57IxNAiELHm6sNZKB3q-27" target="K57IxNAiELHm6sNZKB3q-29">
          <mxGeometry relative="1" as="geometry">
            <Array as="points">
              <mxPoint x="760" y="880" />
            </Array>
          </mxGeometry>
        </mxCell>
        <mxCell id="K57IxNAiELHm6sNZKB3q-27" value="M2" style="ellipse;whiteSpace=wrap;html=1;fontSize=20;" vertex="1" parent="1">
          <mxGeometry x="710" y="720" width="120" height="80" as="geometry" />
        </mxCell>
        <mxCell id="K57IxNAiELHm6sNZKB3q-28" value="T9" style="rounded=0;whiteSpace=wrap;html=1;fontSize=20;" vertex="1" parent="1">
          <mxGeometry x="550" y="840" width="120" height="60" as="geometry" />
        </mxCell>
        <mxCell id="K57IxNAiELHm6sNZKB3q-29" value="T9" style="rounded=0;whiteSpace=wrap;html=1;fontSize=20;" vertex="1" parent="1">
          <mxGeometry x="560" y="850" width="120" height="60" as="geometry" />
        </mxCell>
        <mxCell id="K57IxNAiELHm6sNZKB3q-31" value="T10" style="rounded=0;whiteSpace=wrap;html=1;fontSize=20;" vertex="1" parent="1">
          <mxGeometry x="360" y="840" width="120" height="60" as="geometry" />
        </mxCell>
        <mxCell id="K57IxNAiELHm6sNZKB3q-32" value="T10" style="rounded=0;whiteSpace=wrap;html=1;fontSize=20;" vertex="1" parent="1">
          <mxGeometry x="370" y="850" width="120" height="60" as="geometry" />
        </mxCell>
        <mxCell id="K57IxNAiELHm6sNZKB3q-37" value="T11" style="rounded=0;whiteSpace=wrap;html=1;fontSize=20;" vertex="1" parent="1">
          <mxGeometry x="210" y="750" width="120" height="60" as="geometry" />
        </mxCell>
        <mxCell id="K57IxNAiELHm6sNZKB3q-38" value="T11" style="rounded=0;whiteSpace=wrap;html=1;fontSize=20;" vertex="1" parent="1">
          <mxGeometry x="220" y="760" width="120" height="60" as="geometry" />
        </mxCell>
        <mxCell id="K57IxNAiELHm6sNZKB3q-40" value="T12" style="rounded=0;whiteSpace=wrap;html=1;fontSize=20;" vertex="1" parent="1">
          <mxGeometry x="210" y="930" width="120" height="60" as="geometry" />
        </mxCell>
        <mxCell id="K57IxNAiELHm6sNZKB3q-41" value="T12" style="rounded=0;whiteSpace=wrap;html=1;fontSize=20;" vertex="1" parent="1">
          <mxGeometry x="220" y="940" width="120" height="60" as="geometry" />
        </mxCell>
        <mxCell id="K57IxNAiELHm6sNZKB3q-55" style="edgeStyle=orthogonalEdgeStyle;rounded=0;orthogonalLoop=1;jettySize=auto;html=1;entryX=0.5;entryY=0;entryDx=0;entryDy=0;" edge="1" parent="1" source="K57IxNAiELHm6sNZKB3q-57" target="K57IxNAiELHm6sNZKB3q-58">
          <mxGeometry relative="1" as="geometry" />
        </mxCell>
        <mxCell id="K57IxNAiELHm6sNZKB3q-56" style="edgeStyle=orthogonalEdgeStyle;rounded=0;orthogonalLoop=1;jettySize=auto;html=1;entryX=0.5;entryY=0;entryDx=0;entryDy=0;" edge="1" parent="1" source="K57IxNAiELHm6sNZKB3q-57" target="K57IxNAiELHm6sNZKB3q-81">
          <mxGeometry relative="1" as="geometry" />
        </mxCell>
        <mxCell id="K57IxNAiELHm6sNZKB3q-57" value="START" style="ellipse;whiteSpace=wrap;html=1;fontSize=20;" vertex="1" parent="1">
          <mxGeometry x="120" y="30" width="120" height="80" as="geometry" />
        </mxCell>
        <mxCell id="K57IxNAiELHm6sNZKB3q-58" value="T1" style="rounded=0;whiteSpace=wrap;html=1;fontSize=20;" vertex="1" parent="1">
          <mxGeometry x="120" y="210" width="120" height="60" as="geometry" />
        </mxCell>
        <mxCell id="K57IxNAiELHm6sNZKB3q-59" style="edgeStyle=orthogonalEdgeStyle;rounded=0;orthogonalLoop=1;jettySize=auto;html=1;entryX=0.5;entryY=0;entryDx=0;entryDy=0;" edge="1" parent="1" source="K57IxNAiELHm6sNZKB3q-60" target="K57IxNAiELHm6sNZKB3q-63">
          <mxGeometry relative="1" as="geometry">
            <Array as="points">
              <mxPoint x="180" y="350" />
            </Array>
          </mxGeometry>
        </mxCell>
        <mxCell id="K57IxNAiELHm6sNZKB3q-60" value="T3" style="rounded=0;whiteSpace=wrap;html=1;fontSize=20;" vertex="1" parent="1">
          <mxGeometry x="240" y="310" width="120" height="60" as="geometry" />
        </mxCell>
        <mxCell id="K57IxNAiELHm6sNZKB3q-61" value="T2" style="rounded=0;whiteSpace=wrap;html=1;fontSize=20;" vertex="1" parent="1">
          <mxGeometry y="310" width="120" height="60" as="geometry" />
        </mxCell>
        <mxCell id="K57IxNAiELHm6sNZKB3q-62" value="" style="endArrow=classic;html=1;rounded=0;exitX=1;exitY=0.5;exitDx=0;exitDy=0;fontSize=20;" edge="1" parent="1" source="K57IxNAiELHm6sNZKB3q-58">
          <mxGeometry width="50" height="50" relative="1" as="geometry">
            <mxPoint x="200" y="300" as="sourcePoint" />
            <mxPoint x="310" y="310" as="targetPoint" />
            <Array as="points">
              <mxPoint x="310" y="240" />
            </Array>
          </mxGeometry>
        </mxCell>
        <mxCell id="K57IxNAiELHm6sNZKB3q-63" value="M1" style="ellipse;whiteSpace=wrap;html=1;fontSize=20;" vertex="1" parent="1">
          <mxGeometry x="119.99999999999989" y="410" width="120" height="80" as="geometry" />
        </mxCell>
        <mxCell id="K57IxNAiELHm6sNZKB3q-64" value="T5" style="rounded=0;whiteSpace=wrap;html=1;fontSize=20;" vertex="1" parent="1">
          <mxGeometry x="320" y="530" width="120" height="60" as="geometry" />
        </mxCell>
        <mxCell id="K57IxNAiELHm6sNZKB3q-65" value="" style="endArrow=classic;html=1;rounded=0;exitX=0.5;exitY=1;exitDx=0;exitDy=0;entryX=0;entryY=0.5;entryDx=0;entryDy=0;fontSize=20;" edge="1" parent="1" source="K57IxNAiELHm6sNZKB3q-63" target="K57IxNAiELHm6sNZKB3q-64">
          <mxGeometry width="50" height="50" relative="1" as="geometry">
            <mxPoint x="320" y="460" as="sourcePoint" />
            <mxPoint x="370" y="410" as="targetPoint" />
            <Array as="points">
              <mxPoint x="180" y="560" />
            </Array>
          </mxGeometry>
        </mxCell>
        <mxCell id="K57IxNAiELHm6sNZKB3q-66" style="edgeStyle=orthogonalEdgeStyle;rounded=0;orthogonalLoop=1;jettySize=auto;html=1;entryX=0.5;entryY=0;entryDx=0;entryDy=0;" edge="1" parent="1" source="K57IxNAiELHm6sNZKB3q-67" target="K57IxNAiELHm6sNZKB3q-83">
          <mxGeometry relative="1" as="geometry">
            <Array as="points">
              <mxPoint x="750" y="500" />
            </Array>
          </mxGeometry>
        </mxCell>
        <mxCell id="K57IxNAiELHm6sNZKB3q-67" value="T6" style="rounded=0;whiteSpace=wrap;html=1;fontSize=20;" vertex="1" parent="1">
          <mxGeometry x="500" y="450" width="120" height="60" as="geometry" />
        </mxCell>
        <mxCell id="K57IxNAiELHm6sNZKB3q-68" value="T7" style="rounded=0;whiteSpace=wrap;html=1;fontSize=20;" vertex="1" parent="1">
          <mxGeometry x="500" y="590" width="120" height="60" as="geometry" />
        </mxCell>
        <mxCell id="K57IxNAiELHm6sNZKB3q-69" value="" style="endArrow=classic;html=1;rounded=0;exitX=0.5;exitY=0;exitDx=0;exitDy=0;entryX=0;entryY=0.5;entryDx=0;entryDy=0;fontSize=20;" edge="1" parent="1" source="K57IxNAiELHm6sNZKB3q-64" target="K57IxNAiELHm6sNZKB3q-67">
          <mxGeometry width="50" height="50" relative="1" as="geometry">
            <mxPoint x="560" y="460" as="sourcePoint" />
            <mxPoint x="610" y="410" as="targetPoint" />
            <Array as="points">
              <mxPoint x="380" y="480" />
            </Array>
          </mxGeometry>
        </mxCell>
        <mxCell id="K57IxNAiELHm6sNZKB3q-70" value="M2" style="ellipse;whiteSpace=wrap;html=1;fontSize=20;" vertex="1" parent="1">
          <mxGeometry x="690" y="700" width="120" height="80" as="geometry" />
        </mxCell>
        <mxCell id="K57IxNAiELHm6sNZKB3q-71" value="" style="endArrow=classic;html=1;rounded=0;exitX=0.5;exitY=1;exitDx=0;exitDy=0;fontSize=20;" edge="1" parent="1">
          <mxGeometry width="50" height="50" relative="1" as="geometry">
            <mxPoint x="580.0000000000002" y="650" as="sourcePoint" />
            <mxPoint x="690" y="740" as="targetPoint" />
            <Array as="points">
              <mxPoint x="580" y="740" />
            </Array>
          </mxGeometry>
        </mxCell>
        <mxCell id="K57IxNAiELHm6sNZKB3q-72" value="" style="edgeStyle=orthogonalEdgeStyle;rounded=0;orthogonalLoop=1;jettySize=auto;html=1;" edge="1" parent="1" source="K57IxNAiELHm6sNZKB3q-73" target="K57IxNAiELHm6sNZKB3q-114">
          <mxGeometry relative="1" as="geometry">
            <Array as="points">
              <mxPoint x="520" y="880" />
              <mxPoint x="520" y="880" />
            </Array>
          </mxGeometry>
        </mxCell>
        <mxCell id="K57IxNAiELHm6sNZKB3q-73" value="T9" style="rounded=0;whiteSpace=wrap;html=1;fontSize=20;" vertex="1" parent="1">
          <mxGeometry x="540" y="830" width="120" height="60" as="geometry" />
        </mxCell>
        <mxCell id="K57IxNAiELHm6sNZKB3q-74" style="edgeStyle=orthogonalEdgeStyle;rounded=0;orthogonalLoop=1;jettySize=auto;html=1;entryX=1;entryY=0.5;entryDx=0;entryDy=0;" edge="1" parent="1" source="K57IxNAiELHm6sNZKB3q-75" target="K57IxNAiELHm6sNZKB3q-116">
          <mxGeometry relative="1" as="geometry">
            <Array as="points">
              <mxPoint x="410" y="790" />
            </Array>
          </mxGeometry>
        </mxCell>
        <mxCell id="K57IxNAiELHm6sNZKB3q-75" value="T10" style="rounded=0;whiteSpace=wrap;html=1;fontSize=20;" vertex="1" parent="1">
          <mxGeometry x="350" y="830" width="120" height="60" as="geometry" />
        </mxCell>
        <mxCell id="K57IxNAiELHm6sNZKB3q-76" style="edgeStyle=orthogonalEdgeStyle;rounded=0;orthogonalLoop=1;jettySize=auto;html=1;entryX=0.5;entryY=0;entryDx=0;entryDy=0;" edge="1" parent="1" source="K57IxNAiELHm6sNZKB3q-77" target="K57IxNAiELHm6sNZKB3q-79">
          <mxGeometry relative="1" as="geometry" />
        </mxCell>
        <mxCell id="K57IxNAiELHm6sNZKB3q-77" value="T11" style="rounded=0;whiteSpace=wrap;html=1;fontSize=20;" vertex="1" parent="1">
          <mxGeometry x="200" y="740" width="120" height="60" as="geometry" />
        </mxCell>
        <mxCell id="K57IxNAiELHm6sNZKB3q-78" style="edgeStyle=orthogonalEdgeStyle;rounded=0;orthogonalLoop=1;jettySize=auto;html=1;entryX=0.5;entryY=0;entryDx=0;entryDy=0;" edge="1" parent="1" source="K57IxNAiELHm6sNZKB3q-79" target="K57IxNAiELHm6sNZKB3q-80">
          <mxGeometry relative="1" as="geometry" />
        </mxCell>
        <mxCell id="K57IxNAiELHm6sNZKB3q-79" value="M3" style="ellipse;whiteSpace=wrap;html=1;fontSize=20;" vertex="1" parent="1">
          <mxGeometry x="40" y="820" width="120" height="80" as="geometry" />
        </mxCell>
        <mxCell id="K57IxNAiELHm6sNZKB3q-80" value="&lt;font size=&quot;3&quot;&gt;FINISH&lt;/font&gt;" style="ellipse;whiteSpace=wrap;html=1;" vertex="1" parent="1">
          <mxGeometry x="40" y="980" width="120" height="80" as="geometry" />
        </mxCell>
        <mxCell id="K57IxNAiELHm6sNZKB3q-81" value="T4" style="rounded=0;whiteSpace=wrap;html=1;fontSize=20;" vertex="1" parent="1">
          <mxGeometry x="360" y="210" width="120" height="60" as="geometry" />
        </mxCell>
        <mxCell id="K57IxNAiELHm6sNZKB3q-82" style="edgeStyle=orthogonalEdgeStyle;rounded=0;orthogonalLoop=1;jettySize=auto;html=1;" edge="1" parent="1" source="K57IxNAiELHm6sNZKB3q-83" target="K57IxNAiELHm6sNZKB3q-70">
          <mxGeometry relative="1" as="geometry" />
        </mxCell>
        <mxCell id="K57IxNAiELHm6sNZKB3q-83" value="T8" style="rounded=0;whiteSpace=wrap;html=1;fontSize=20;" vertex="1" parent="1">
          <mxGeometry x="690" y="530" width="120" height="60" as="geometry" />
        </mxCell>
        <mxCell id="K57IxNAiELHm6sNZKB3q-84" style="edgeStyle=orthogonalEdgeStyle;rounded=0;orthogonalLoop=1;jettySize=auto;html=1;entryX=1;entryY=0.5;entryDx=0;entryDy=0;" edge="1" parent="1" source="K57IxNAiELHm6sNZKB3q-85" target="K57IxNAiELHm6sNZKB3q-119">
          <mxGeometry relative="1" as="geometry">
            <Array as="points">
              <mxPoint x="260" y="870" />
            </Array>
          </mxGeometry>
        </mxCell>
        <mxCell id="K57IxNAiELHm6sNZKB3q-85" value="T12" style="rounded=0;whiteSpace=wrap;html=1;fontSize=20;" vertex="1" parent="1">
          <mxGeometry x="200" y="920" width="120" height="60" as="geometry" />
        </mxCell>
        <mxCell id="K57IxNAiELHm6sNZKB3q-86" value="T1" style="rounded=0;whiteSpace=wrap;html=1;fontSize=20;" vertex="1" parent="1">
          <mxGeometry x="130" y="220" width="120" height="60" as="geometry" />
        </mxCell>
        <mxCell id="K57IxNAiELHm6sNZKB3q-87" value="T1" style="rounded=0;whiteSpace=wrap;html=1;fontSize=20;" vertex="1" parent="1">
          <mxGeometry x="140" y="230" width="120" height="60" as="geometry" />
        </mxCell>
        <mxCell id="K57IxNAiELHm6sNZKB3q-88" value="T4" style="rounded=0;whiteSpace=wrap;html=1;fontSize=20;" vertex="1" parent="1">
          <mxGeometry x="370" y="220" width="120" height="60" as="geometry" />
        </mxCell>
        <mxCell id="K57IxNAiELHm6sNZKB3q-89" style="edgeStyle=orthogonalEdgeStyle;rounded=0;orthogonalLoop=1;jettySize=auto;html=1;entryX=1;entryY=0.5;entryDx=0;entryDy=0;" edge="1" parent="1" source="K57IxNAiELHm6sNZKB3q-90" target="K57IxNAiELHm6sNZKB3q-97">
          <mxGeometry relative="1" as="geometry">
            <Array as="points">
              <mxPoint x="420" y="460" />
            </Array>
          </mxGeometry>
        </mxCell>
        <mxCell id="K57IxNAiELHm6sNZKB3q-90" value="T4" style="rounded=0;whiteSpace=wrap;html=1;fontSize=20;" vertex="1" parent="1">
          <mxGeometry x="380" y="230" width="120" height="60" as="geometry" />
        </mxCell>
        <mxCell id="K57IxNAiELHm6sNZKB3q-91" value="T2" style="rounded=0;whiteSpace=wrap;html=1;fontSize=20;" vertex="1" parent="1">
          <mxGeometry x="10" y="320" width="120" height="60" as="geometry" />
        </mxCell>
        <mxCell id="K57IxNAiELHm6sNZKB3q-92" style="edgeStyle=orthogonalEdgeStyle;rounded=0;orthogonalLoop=1;jettySize=auto;html=1;entryX=0;entryY=0.5;entryDx=0;entryDy=0;" edge="1" parent="1" source="K57IxNAiELHm6sNZKB3q-93" target="K57IxNAiELHm6sNZKB3q-63">
          <mxGeometry relative="1" as="geometry">
            <Array as="points">
              <mxPoint x="60" y="450" />
            </Array>
          </mxGeometry>
        </mxCell>
        <mxCell id="K57IxNAiELHm6sNZKB3q-93" value="T2" style="rounded=0;whiteSpace=wrap;html=1;fontSize=20;" vertex="1" parent="1">
          <mxGeometry x="20" y="330" width="120" height="60" as="geometry" />
        </mxCell>
        <mxCell id="K57IxNAiELHm6sNZKB3q-94" value="T3" style="rounded=0;whiteSpace=wrap;html=1;fontSize=20;" vertex="1" parent="1">
          <mxGeometry x="250" y="320" width="120" height="60" as="geometry" />
        </mxCell>
        <mxCell id="K57IxNAiELHm6sNZKB3q-95" value="T3" style="rounded=0;whiteSpace=wrap;html=1;fontSize=20;" vertex="1" parent="1">
          <mxGeometry x="260" y="330" width="120" height="60" as="geometry" />
        </mxCell>
        <mxCell id="K57IxNAiELHm6sNZKB3q-97" value="M1" style="ellipse;whiteSpace=wrap;html=1;fontSize=20;" vertex="1" parent="1">
          <mxGeometry x="129.9999999999999" y="420" width="120" height="80" as="geometry" />
        </mxCell>
        <mxCell id="K57IxNAiELHm6sNZKB3q-98" value="T5" style="rounded=0;whiteSpace=wrap;html=1;fontSize=20;" vertex="1" parent="1">
          <mxGeometry x="330" y="540" width="120" height="60" as="geometry" />
        </mxCell>
        <mxCell id="K57IxNAiELHm6sNZKB3q-99" style="edgeStyle=orthogonalEdgeStyle;rounded=0;orthogonalLoop=1;jettySize=auto;html=1;" edge="1" parent="1" source="K57IxNAiELHm6sNZKB3q-100">
          <mxGeometry relative="1" as="geometry">
            <mxPoint x="500" y="640" as="targetPoint" />
            <Array as="points">
              <mxPoint x="380" y="640" />
              <mxPoint x="500" y="640" />
            </Array>
          </mxGeometry>
        </mxCell>
        <mxCell id="K57IxNAiELHm6sNZKB3q-100" value="T5" style="rounded=0;whiteSpace=wrap;html=1;fontSize=20;" vertex="1" parent="1">
          <mxGeometry x="340" y="550" width="120" height="60" as="geometry" />
        </mxCell>
        <mxCell id="K57IxNAiELHm6sNZKB3q-101" value="T7" style="rounded=0;whiteSpace=wrap;html=1;fontSize=20;" vertex="1" parent="1">
          <mxGeometry x="510" y="600" width="120" height="60" as="geometry" />
        </mxCell>
        <mxCell id="K57IxNAiELHm6sNZKB3q-102" value="T7" style="rounded=0;whiteSpace=wrap;html=1;fontSize=20;" vertex="1" parent="1">
          <mxGeometry x="520" y="610" width="120" height="60" as="geometry" />
        </mxCell>
        <mxCell id="K57IxNAiELHm6sNZKB3q-103" value="T6" style="rounded=0;whiteSpace=wrap;html=1;fontSize=20;" vertex="1" parent="1">
          <mxGeometry x="510" y="460" width="120" height="60" as="geometry" />
        </mxCell>
        <mxCell id="K57IxNAiELHm6sNZKB3q-104" value="T6" style="rounded=0;whiteSpace=wrap;html=1;fontSize=20;" vertex="1" parent="1">
          <mxGeometry x="520" y="470" width="120" height="60" as="geometry" />
        </mxCell>
        <mxCell id="K57IxNAiELHm6sNZKB3q-105" value="T8" style="rounded=0;whiteSpace=wrap;html=1;fontSize=20;" vertex="1" parent="1">
          <mxGeometry x="700" y="540" width="120" height="60" as="geometry" />
        </mxCell>
        <mxCell id="K57IxNAiELHm6sNZKB3q-106" value="T8" style="rounded=0;whiteSpace=wrap;html=1;fontSize=20;" vertex="1" parent="1">
          <mxGeometry x="710" y="550" width="120" height="60" as="geometry" />
        </mxCell>
        <mxCell id="K57IxNAiELHm6sNZKB3q-107" value="M2" style="ellipse;whiteSpace=wrap;html=1;fontSize=20;" vertex="1" parent="1">
          <mxGeometry x="700" y="710" width="120" height="80" as="geometry" />
        </mxCell>
        <mxCell id="K57IxNAiELHm6sNZKB3q-108" style="edgeStyle=orthogonalEdgeStyle;rounded=0;orthogonalLoop=1;jettySize=auto;html=1;entryX=1;entryY=0.5;entryDx=0;entryDy=0;" edge="1" parent="1" source="K57IxNAiELHm6sNZKB3q-109" target="K57IxNAiELHm6sNZKB3q-111">
          <mxGeometry relative="1" as="geometry">
            <Array as="points">
              <mxPoint x="760" y="880" />
            </Array>
          </mxGeometry>
        </mxCell>
        <mxCell id="K57IxNAiELHm6sNZKB3q-109" value="M2" style="ellipse;whiteSpace=wrap;html=1;fontSize=20;" vertex="1" parent="1">
          <mxGeometry x="710" y="720" width="120" height="80" as="geometry" />
        </mxCell>
        <mxCell id="K57IxNAiELHm6sNZKB3q-110" value="T9" style="rounded=0;whiteSpace=wrap;html=1;fontSize=20;" vertex="1" parent="1">
          <mxGeometry x="550" y="840" width="120" height="60" as="geometry" />
        </mxCell>
        <mxCell id="K57IxNAiELHm6sNZKB3q-111" value="T9" style="rounded=0;whiteSpace=wrap;html=1;fontSize=20;" vertex="1" parent="1">
          <mxGeometry x="560" y="850" width="120" height="60" as="geometry" />
        </mxCell>
        <mxCell id="K57IxNAiELHm6sNZKB3q-112" value="T10" style="rounded=0;whiteSpace=wrap;html=1;fontSize=20;" vertex="1" parent="1">
          <mxGeometry x="360" y="840" width="120" height="60" as="geometry" />
        </mxCell>
        <mxCell id="K57IxNAiELHm6sNZKB3q-113" style="edgeStyle=orthogonalEdgeStyle;rounded=0;orthogonalLoop=1;jettySize=auto;html=1;entryX=1;entryY=0.5;entryDx=0;entryDy=0;" edge="1" parent="1" source="K57IxNAiELHm6sNZKB3q-114" target="K57IxNAiELHm6sNZKB3q-118">
          <mxGeometry relative="1" as="geometry">
            <Array as="points">
              <mxPoint x="410" y="970" />
            </Array>
          </mxGeometry>
        </mxCell>
        <mxCell id="K57IxNAiELHm6sNZKB3q-114" value="T10" style="rounded=0;whiteSpace=wrap;html=1;fontSize=20;" vertex="1" parent="1">
          <mxGeometry x="370" y="850" width="120" height="60" as="geometry" />
        </mxCell>
        <mxCell id="K57IxNAiELHm6sNZKB3q-115" value="T11" style="rounded=0;whiteSpace=wrap;html=1;fontSize=20;" vertex="1" parent="1">
          <mxGeometry x="210" y="750" width="120" height="60" as="geometry" />
        </mxCell>
        <mxCell id="K57IxNAiELHm6sNZKB3q-116" value="T11" style="rounded=0;whiteSpace=wrap;html=1;fontSize=20;" vertex="1" parent="1">
          <mxGeometry x="220" y="760" width="120" height="60" as="geometry" />
        </mxCell>
        <mxCell id="K57IxNAiELHm6sNZKB3q-117" value="T12" style="rounded=0;whiteSpace=wrap;html=1;fontSize=20;" vertex="1" parent="1">
          <mxGeometry x="210" y="930" width="120" height="60" as="geometry" />
        </mxCell>
        <mxCell id="K57IxNAiELHm6sNZKB3q-118" value="T12" style="rounded=0;whiteSpace=wrap;html=1;fontSize=20;" vertex="1" parent="1">
          <mxGeometry x="220" y="940" width="120" height="60" as="geometry" />
        </mxCell>
        <mxCell id="K57IxNAiELHm6sNZKB3q-119" value="M3" style="ellipse;whiteSpace=wrap;html=1;fontSize=20;" vertex="1" parent="1">
          <mxGeometry x="50" y="830" width="120" height="80" as="geometry" />
        </mxCell>
      </root>
    </mxGraphModel>
  </diagram>
</mxfile>
